<svg width="15" height="15" viewBox="0 0 15 15" class="icon icon-plus" fill="none" xmlns="http://www.w3.org/2000/svg">
<path fill-rule="evenodd" clip-rule="evenodd" d="M14 8.36394C14.5523 8.36394 15 7.91622 15 7.36394C15 6.81165 14.5523 6.36394 14 6.36394L8.63672 6.36394L8.63672 1C8.63672 0.447715 8.189 -2.97718e-07 7.63672 -3.21859e-07C7.08443 -3.46e-07 6.63672 0.447715 6.63672 1L6.63672 6.36394L1 6.36394C0.447715 6.36394 -2.97747e-07 6.81165 -3.21888e-07 7.36394C-3.46029e-07 7.91622 0.447714 8.36394 1 8.36394L6.63672 8.36394L6.63672 14C6.63672 14.5523 7.08443 15 7.63672 15C8.189 15 8.63672 14.5523 8.63672 14L8.63672 8.36394L14 8.36394Z" fill="#990000"/>
</svg>
