<svg width="12" height="13" viewBox="0 0 12 13" fill="none" class="icon icon-close" xmlns="http://www.w3.org/2000/svg">
<path fill-rule="evenodd" clip-rule="evenodd" d="M11.2071 2.6213C11.5976 2.23078 11.5976 1.59762 11.2071 1.20709C10.8166 0.816567 10.1834 0.816567 9.79288 1.20709L5.99997 5L2.20709 1.20712C1.81657 0.816598 1.1834 0.816598 0.792877 1.20712C0.402353 1.59765 0.402353 2.23081 0.792878 2.62134L4.58575 6.41421L0.600489 10.3995C0.209964 10.79 0.209964 11.4232 0.600489 11.8137C0.991013 12.2042 1.62418 12.2042 2.0147 11.8137L5.99997 7.82843L9.98527 11.8137C10.3758 12.2042 11.009 12.2042 11.3995 11.8137C11.79 11.4232 11.79 10.79 11.3995 10.3995L7.41418 6.41421L11.2071 2.6213Z" fill="#990000"/>
</svg>
