<svg class="icon icon-cart" width="24" height="24" viewBox="0 0 24 24" fill="none" xmlns="http://www.w3.org/2000/svg">
<path d="M18.0604 3C18.5421 3.00004 19.0077 3.17395 19.3714 3.48975C19.7352 3.80556 19.9727 4.24206 20.0404 4.719L20.0574 4.875L20.9324 18.875C20.9655 19.4003 20.7901 19.9175 20.4443 20.3143C20.0986 20.7112 19.6103 20.9558 19.0854 20.995L18.9354 21H5.06641C4.54011 21 4.035 20.7926 3.66061 20.4227C3.28622 20.0528 3.07272 19.5503 3.06641 19.024L3.06941 18.875L3.94441 4.875C3.9745 4.39407 4.17722 3.94017 4.51528 3.59679C4.85333 3.2534 5.30401 3.04361 5.78441 3.006L5.94041 3H18.0604ZM18.0604 5H5.94041L5.06541 19H18.9354L18.0604 5ZM15.0004 7C15.2656 7 15.52 7.10536 15.7075 7.29289C15.895 7.48043 16.0004 7.73478 16.0004 8C16.0004 9.06087 15.579 10.0783 14.8288 10.8284C14.0787 11.5786 13.0613 12 12.0004 12C10.9395 12 9.92212 11.5786 9.17198 10.8284C8.42183 10.0783 8.00041 9.06087 8.00041 8C8.00041 7.73478 8.10576 7.48043 8.2933 7.29289C8.48084 7.10536 8.73519 7 9.00041 7C9.26562 7 9.51998 7.10536 9.70751 7.29289C9.89505 7.48043 10.0004 7.73478 10.0004 8C9.99808 8.51898 10.1976 9.01855 10.5568 9.39315C10.916 9.76776 11.4067 9.98807 11.9253 10.0075C12.444 10.027 12.9499 9.84412 13.3361 9.49751C13.7224 9.15089 13.9588 8.6677 13.9954 8.15L14.0004 8C14.0004 7.73478 14.1058 7.48043 14.2933 7.29289C14.4808 7.10536 14.7352 7 15.0004 7Z" fill="white"/>
</svg>
