<svg class="icon icon-phone" width="30" height="30" viewBox="0 0 30 30" fill="none" xmlns="http://www.w3.org/2000/svg">
<path d="M20.6636 17.3049C20.6638 17.3049 20.6639 17.3045 20.6637 17.3044L16.7104 15.5336C16.6623 15.5135 16.6102 15.505 16.5582 15.5089V15.5089C16.455 15.5167 16.3719 15.59 16.2931 15.6571L14.3372 17.3241L14.3063 17.3475C14.162 17.4438 13.9953 17.5012 13.8224 17.5139C13.6495 17.5267 13.4761 17.4945 13.3193 17.4204C11.8126 16.693 10.3134 15.2038 9.58595 13.7147C9.51114 13.5591 9.47769 13.3869 9.48883 13.2146C9.49997 13.0423 9.55533 12.8758 9.64957 12.7311C9.6571 12.7194 9.66547 12.7094 9.67384 12.6985L11.3468 10.709C11.4139 10.6292 11.4865 10.5447 11.4932 10.4407V10.4407C11.4965 10.3884 11.4875 10.336 11.4669 10.2878L9.69728 6.34184C9.67235 6.28067 9.62987 6.22824 9.57521 6.19116C9.52054 6.15407 9.45613 6.13398 9.39007 6.13342C9.37669 6.13261 9.36327 6.13261 9.34989 6.13342C8.45777 6.25162 7.63924 6.69069 7.04734 7.36854C6.45544 8.04639 6.13069 8.9166 6.13381 9.81649C6.13381 15.9086 11.091 20.8657 17.1833 20.8657C18.0832 20.8688 18.9535 20.5441 19.6313 19.9522C20.3092 19.3603 20.7483 18.5418 20.8665 17.6497C20.8742 17.5779 20.8585 17.5055 20.8217 17.4434C20.7851 17.3816 20.7296 17.3332 20.6635 17.3054C20.6632 17.3052 20.6633 17.3049 20.6636 17.3049V17.3049Z" stroke="black" stroke-width="1.5"/>
<circle cx="13.5" cy="13.5" r="12.5" stroke="black" stroke-width="1.5"/>
</svg>
