<svg class="icon icon-details" width="18" height="20" viewBox="0 0 18 20" fill="none" xmlns="http://www.w3.org/2000/svg">
<path fill-rule="evenodd" clip-rule="evenodd" d="M0.292893 0.292893C0.48043 0.105357 0.734784 0 1 0H17C17.2652 0 17.5196 0.105357 17.7071 0.292893C17.8946 0.48043 18 0.734784 18 1C18 1.26522 17.8946 1.51957 17.7071 1.70711C17.5196 1.89464 17.2652 2 17 2H1C0.734784 2 0.48043 1.89464 0.292893 1.70711C0.105357 1.51957 0 1.26522 0 1C0 0.734784 0.105357 0.48043 0.292893 0.292893ZM0.292893 7.29289C0.105357 7.48043 0 7.73478 0 8C0 8.26522 0.105357 8.51957 0.292893 8.70711C0.48043 8.89464 0.734784 9 1 9H4C4.26522 9 4.51957 8.89464 4.70711 8.70711C4.89464 8.51957 5 8.26522 5 8C5 7.73478 4.89464 7.48043 4.70711 7.29289C4.51957 7.10536 4.26522 7 4 7H1C0.734784 7 0.48043 7.10536 0.292893 7.29289ZM0.292893 14.2929C0.105357 14.4804 0 14.7348 0 15C0 15.2652 0.105357 15.5196 0.292893 15.7071C0.48043 15.8946 0.734784 16 1 16H5C5.26522 16 5.51957 15.8946 5.70711 15.7071C5.89464 15.5196 6 15.2652 6 15C6 14.7348 5.89464 14.4804 5.70711 14.2929C5.51957 14.1054 5.26522 14 5 14H1C0.734784 14 0.48043 14.1054 0.292893 14.2929ZM7.53286 7.75516C7.18267 8.45167 7.00019 9.22041 7 10C6.99986 10.9034 7.24447 11.7899 7.70784 12.5654C8.17121 13.3409 8.83602 13.9764 9.63163 14.4043C10.4272 14.8322 11.3239 15.0366 12.2264 14.9957C13.1288 14.9548 14.0034 14.6701 14.757 14.172L16.293 15.707C16.4816 15.8892 16.7342 15.99 16.9964 15.9877C17.2586 15.9854 17.5094 15.8802 17.6948 15.6948C17.8802 15.5094 17.9854 15.2586 17.9877 14.9964C17.99 14.7342 17.8892 14.4816 17.707 14.293L16.172 12.757C16.6017 12.1065 16.8733 11.3646 16.9652 10.5904C17.057 9.81625 16.9666 9.03134 16.7011 8.29835C16.4356 7.56537 16.0024 6.90462 15.436 6.36889C14.8697 5.83315 14.1859 5.43726 13.4393 5.21285C12.6927 4.98843 11.904 4.9417 11.1361 5.07639C10.3683 5.21108 9.64255 5.52346 9.01691 5.98857C8.39127 6.45369 7.88306 7.05866 7.53286 7.75516ZM10.8519 7.22836C11.2159 7.0776 11.606 7 12 7C12.7956 7 13.5587 7.31607 14.1213 7.87868C14.6839 8.44129 15 9.20435 15 10C15 10.7956 14.6839 11.5587 14.1213 12.1213C13.5587 12.6839 12.7956 13 12 13C11.606 13 11.2159 12.9224 10.8519 12.7716C10.488 12.6209 10.1573 12.3999 9.87868 12.1213C9.6001 11.8427 9.37913 11.512 9.22836 11.1481C9.0776 10.7841 9 10.394 9 10C9 9.60603 9.0776 9.21593 9.22836 8.85195C9.37913 8.48797 9.6001 8.15726 9.87868 7.87868C10.1573 7.6001 10.488 7.37913 10.8519 7.22836ZM9.58217 19.2599L9.59417 19.2579C9.60217 19.2593 9.6075 19.2653 9.61017 19.2759L9.62717 19.7029L9.62317 19.7199L9.61117 19.7359L9.50717 19.8099L9.49517 19.8139L9.48017 19.8099L9.37617 19.7359L9.36617 19.7229L9.36117 19.7029L9.37817 19.2749L9.38217 19.2649C9.3875 19.2583 9.3955 19.2563 9.40617 19.2589L9.47717 19.2949L9.49117 19.2989L9.51117 19.2949L9.58217 19.2599ZM9.84417 19.1469L9.85817 19.1449C9.86817 19.1469 9.87484 19.1543 9.87817 19.1669L9.91217 19.7809L9.90817 19.7949C9.9015 19.8036 9.89184 19.8063 9.87917 19.8029L9.67817 19.7109L9.67017 19.7029L9.66517 19.6909L9.64717 19.2609L9.65017 19.2499L9.66017 19.2399L9.84417 19.1469ZM9.12847 19.1445C9.1335 19.1434 9.13876 19.1443 9.14317 19.1469L9.32717 19.2389L9.33717 19.2489L9.34017 19.2609L9.32217 19.6909L9.31917 19.7019L9.30917 19.7099L9.10817 19.8029L9.09317 19.8049C9.08251 19.8009 9.07684 19.7929 9.07617 19.7809L9.11017 19.1669L9.11617 19.1529C9.11903 19.1487 9.12344 19.1456 9.12847 19.1445Z" fill="#999999"/>
</svg>
